<svg width="244" height="68" viewBox="0 0 244 68" fill="none" xmlns="http://www.w3.org/2000/svg">
<path d="M120.257 9.47548C89.4228 9.70558 62.022 8.90173 31.1873 8.90173C27.3725 8.90173 23.4691 13.3171 20.2847 15.0862C14.6529 18.215 9.88482 22.1707 5.36548 26.6901L5.36523 41.0354C5.36523 42.4563 5.59668 42.5889 6 44.0005C6.19493 44.6827 5.81095 44.3991 7.40548 46.1998C9 48.0005 11.2596 48.3803 13.5 49.5005C16.7721 51.1365 21.0199 54.3795 23.5099 55.94C26 57.5005 30 60.0005 32 60.0005C34.5 59.997 39.9942 59.9712 42.6636 59.9712H181C193.026 59.9712 206.009 62.4984 218 62.4984C220.5 62.4984 232.49 48.3324 234.606 46.7736C235.534 46.0893 238.336 43.6619 238.336 42.47V25.8293C238.336 23.1196 238.207 22.6555 236.614 20.6649C235.368 19.1075 233.212 18.1241 231.737 16.6482C229.426 14.3375 227.04 12.2062 224.755 9.92178C223.983 9.14913 221.029 5.52088 219.973 5.45875C218.264 5.3582 216.521 5.45875 214.809 5.45875C202.579 5.45875 190.399 5.76176 178.212 6.03257C175.951 6.08282 173.35 6.47427 171.071 6.7339C166.305 7.27694 161.622 7.45291 156.853 7.88154C144.747 8.96974 132.41 9.38478 120.257 9.47548Z" fill="#005232" stroke="#00C177" stroke-width="10" stroke-linecap="round"/>
<path d="M35.9258 25.232C36.2138 25.136 36.5258 25.088 36.8618 25.088C37.7498 25.088 38.5658 25.4 39.3098 26.024C40.0778 26.624 40.5578 27.284 40.7498 28.004C40.8458 28.292 40.8938 28.604 40.8938 28.94C40.8938 29.348 40.7978 29.648 40.6058 29.84C40.4858 29.912 40.3298 29.948 40.1378 29.948C39.6338 29.948 39.1178 29.78 38.5898 29.444C38.1338 29.156 37.6778 29.012 37.2218 29.012C36.3818 29.012 35.6858 29.492 35.1338 30.452C34.6058 31.412 34.3418 32.648 34.3418 34.16C34.3418 34.424 34.3658 34.868 34.4138 35.492C34.6778 37.868 35.3738 39.68 36.5018 40.928C37.1258 41.624 37.7978 41.972 38.5178 41.972C38.9738 41.972 39.5258 41.864 40.1738 41.648C40.9418 41.408 41.4458 41.288 41.6858 41.288C42.0458 41.288 42.3338 41.48 42.5498 41.864C42.6698 42.08 42.7298 42.38 42.7298 42.764C42.7298 43.508 42.5018 44.12 42.0458 44.6C41.6858 45.032 41.1098 45.38 40.3178 45.644C39.5258 45.884 38.7098 46.004 37.8698 46.004C37.3898 46.004 36.9098 45.944 36.4298 45.824C32.9018 44.888 31.1378 41.36 31.1378 35.24C31.1378 32.864 31.3898 30.968 31.8938 29.552C32.7098 27.272 34.0538 25.832 35.9258 25.232ZM55.6049 28.508C55.1729 28.22 54.6449 28.076 54.0209 28.076C52.9889 28.076 52.1849 28.4 51.6089 29.048C51.1529 29.528 50.7809 30.296 50.4929 31.352C50.2289 32.384 50.0969 33.476 50.0969 34.628C50.0969 35.564 50.2049 36.416 50.4209 37.184C50.8769 38.84 51.5369 40.172 52.4009 41.18C53.2649 42.164 54.1889 42.656 55.1729 42.656C55.5329 42.656 55.9049 42.56 56.2889 42.368C56.9129 42.032 57.3449 41.42 57.5849 40.532C57.8489 39.644 57.9809 38.276 57.9809 36.428C57.9809 34.532 57.7649 32.852 57.3329 31.388C56.9009 29.924 56.3249 28.964 55.6049 28.508ZM51.1769 25.16C51.5129 25.04 52.0649 24.98 52.8329 24.98C53.6249 24.98 54.2129 25.04 54.5969 25.16C57.3809 25.904 59.2529 27.812 60.2129 30.884C60.7649 32.78 61.0409 34.784 61.0409 36.896C61.0409 37.736 60.9929 38.396 60.8969 38.876C60.6569 40.364 60.1409 41.732 59.3489 42.98C58.5809 44.204 57.7289 45.056 56.7929 45.536C56.2649 45.776 55.7609 45.896 55.2809 45.896C53.5289 45.896 51.7169 44.924 49.8449 42.98C48.2849 41.372 47.2889 39.512 46.8569 37.4C46.7369 36.872 46.6769 36.008 46.6769 34.808C46.6769 33.032 46.8089 31.616 47.0729 30.56C47.8169 27.584 49.1849 25.784 51.1769 25.16ZM76.0838 24.8C76.3958 24.536 76.6838 24.404 76.9478 24.404C77.3798 24.404 77.8238 24.656 78.2798 25.16C78.7358 25.64 79.0718 26.24 79.2878 26.96C79.5278 27.704 79.6478 29.492 79.6478 32.324C79.6478 35.324 79.5158 37.616 79.2518 39.2C78.9878 40.832 78.2798 42.488 77.1278 44.168C76.2158 45.584 74.9798 46.292 73.4198 46.292C72.9878 46.292 72.4118 46.208 71.6918 46.04C68.7158 45.272 66.8198 43.376 66.0038 40.352C65.8358 39.752 65.6198 38.18 65.3558 35.636C65.1158 33.068 64.9718 30.968 64.9238 29.336C64.9238 29.144 64.9118 28.904 64.8878 28.616C64.8878 28.328 64.8878 28.124 64.8878 28.004C64.8878 26.708 65.1398 25.796 65.6438 25.268C65.8598 25.028 66.0278 24.884 66.1478 24.836C66.2918 24.764 66.5078 24.728 66.7958 24.728C67.4438 24.728 67.9598 25.088 68.3438 25.808C68.6558 26.456 68.8838 28.328 69.0278 31.424C69.1718 35.12 69.3398 37.628 69.5318 38.948C69.7238 40.244 70.0358 41.132 70.4678 41.612C70.9238 42.092 71.5118 42.332 72.2318 42.332C73.1438 42.332 73.8158 41.768 74.2478 40.64C74.6798 39.488 74.9918 37.424 75.1838 34.448C75.2318 33.896 75.2558 33.056 75.2558 31.928C75.2558 31.04 75.2438 30.38 75.2198 29.948C75.1718 28.748 75.1478 28.004 75.1478 27.716C75.1478 26.876 75.2078 26.264 75.3278 25.88C75.4718 25.472 75.7238 25.112 76.0838 24.8ZM95.2952 24.836C95.6072 24.548 95.8832 24.488 96.1232 24.656C96.4112 24.848 96.6152 25.46 96.7352 26.492C96.8552 27.524 96.9392 29.456 96.9872 32.288V34.484C96.9872 38.084 96.8312 40.808 96.5192 42.656C96.4232 43.28 96.2432 43.892 95.9792 44.492C95.7392 45.068 95.5232 45.416 95.3312 45.536C95.2112 45.608 95.1032 45.644 95.0072 45.644C93.7592 45.644 91.5272 42.548 88.3112 36.356L87.0872 33.98L87.1592 35.276C87.2792 37.628 87.3392 39.26 87.3392 40.172C87.3392 41.996 87.1232 43.34 86.6912 44.204C86.1392 45.332 85.4912 45.896 84.7472 45.896C84.2432 45.896 83.8712 45.608 83.6312 45.032C83.3912 44.48 83.2712 43.784 83.2712 42.944C83.2712 42.272 83.3192 41.54 83.4152 40.748C83.5832 39.068 83.6792 36.524 83.7032 33.116C83.7272 29.444 83.8112 27.44 83.9552 27.104C84.2672 26.336 84.6632 25.952 85.1432 25.952C85.4792 25.952 85.8032 26.12 86.1152 26.456C86.8592 27.272 88.5152 29.936 91.0832 34.448C92.5712 37.016 93.3632 38.3 93.4592 38.3C93.4832 38.3 93.4952 38.288 93.4952 38.264C93.4952 38.216 93.5072 37.94 93.5312 37.436C93.5552 36.908 93.5792 36.188 93.6032 35.276C93.6272 34.364 93.6512 33.488 93.6752 32.648L93.8192 27.392L94.3592 26.276C94.8152 25.436 95.1272 24.956 95.2952 24.836ZM106.507 24.548C107.227 24.5 108.043 24.476 108.955 24.476C111.451 24.476 113.347 24.548 114.643 24.692C116.203 24.884 117.139 25.22 117.451 25.7C117.595 25.916 117.595 26.192 117.451 26.528C117.091 27.464 115.591 28.184 112.951 28.688L111.727 28.94V43.52L111.331 44.348C110.851 45.26 110.335 45.716 109.783 45.716C109.327 45.716 108.919 45.416 108.559 44.816C108.199 44.216 107.959 43.46 107.839 42.548C107.839 42.476 107.803 42.188 107.731 41.684C107.659 41.18 107.599 40.808 107.551 40.568C107.263 38.792 107.119 36.092 107.119 32.468V31.28L107.191 28.724L105.859 28.58C104.419 28.412 103.219 28.136 102.259 27.752C101.299 27.368 100.819 26.972 100.819 26.564C100.819 26.084 101.323 25.664 102.331 25.304C103.363 24.944 104.755 24.692 106.507 24.548ZM143.269 24.728C143.557 24.44 143.809 24.296 144.025 24.296C144.313 24.296 144.721 24.572 145.249 25.124C145.849 25.772 146.173 26.168 146.221 26.312C146.485 27.08 147.001 28.772 147.769 31.388C148.537 34.004 149.065 35.744 149.353 36.608C150.601 40.448 151.225 42.896 151.225 43.952C151.225 44.6 151.033 45.14 150.649 45.572C150.457 45.788 150.241 45.896 150.001 45.896C149.377 45.896 148.777 45.332 148.201 44.204C147.409 42.644 146.593 40.604 145.753 38.084C144.913 35.564 144.253 33.2 143.773 30.992L143.629 30.38L143.161 31.604C142.489 33.356 141.889 34.568 141.361 35.24C141.121 35.552 140.857 35.708 140.569 35.708C140.377 35.708 140.149 35.612 139.885 35.42C139.645 35.228 139.273 34.736 138.769 33.944C138.265 33.152 137.845 32.384 137.509 31.64C137.173 30.92 136.969 30.56 136.897 30.56H136.861C136.645 31.064 136.105 33.368 135.241 37.472C134.593 40.592 134.077 42.668 133.693 43.7C133.309 44.708 132.829 45.368 132.253 45.68C132.037 45.8 131.809 45.86 131.569 45.86C130.897 45.86 130.525 45.284 130.453 44.132C130.453 44.06 130.441 43.964 130.417 43.844C130.417 43.724 130.417 43.64 130.417 43.592C130.417 43.16 130.597 41.672 130.957 39.128C131.125 37.736 131.545 35.852 132.217 33.476C132.889 31.076 133.501 29.252 134.053 28.004C134.413 27.188 134.893 26.384 135.493 25.592C136.093 24.8 136.525 24.404 136.789 24.404C137.341 24.404 138.301 25.376 139.669 27.32L140.749 28.904L141.181 27.968C141.781 26.648 142.477 25.568 143.269 24.728ZM159.454 24.836C160.294 24.764 161.11 24.728 161.902 24.728C164.878 24.728 166.522 25.124 166.834 25.916C166.858 25.964 166.87 26.048 166.87 26.168C166.87 26.528 166.63 26.936 166.15 27.392C165.838 27.68 165.202 27.86 164.242 27.932C160.594 28.244 158.734 28.436 158.662 28.508C158.638 28.532 158.686 29.144 158.806 30.344C158.95 31.688 159.022 32.516 159.022 32.828C159.046 33.284 159.106 33.488 159.202 33.44C159.922 33.152 161.122 33.008 162.802 33.008C163.642 33.008 164.326 33.068 164.854 33.188C165.814 33.404 166.294 33.764 166.294 34.268C166.294 34.58 166.066 34.964 165.61 35.42C165.274 35.756 165.034 35.96 164.89 36.032C164.746 36.104 164.398 36.152 163.846 36.176C163.222 36.224 162.262 36.344 160.966 36.536C159.67 36.704 158.998 36.812 158.95 36.86C158.926 36.884 158.89 37.772 158.842 39.524V40.712C158.842 41.672 158.89 42.2 158.986 42.296C159.154 42.464 159.898 42.548 161.218 42.548C162.154 42.548 163.078 42.488 163.99 42.368C164.902 42.224 165.55 42.152 165.934 42.152C166.318 42.152 166.75 42.26 167.23 42.476C167.806 42.764 168.094 43.064 168.094 43.376C168.094 43.496 168.034 43.676 167.914 43.916C167.626 44.468 167.002 44.864 166.042 45.104C163.474 45.68 160.87 45.968 158.23 45.968C156.934 45.968 156.13 45.872 155.818 45.68L155.314 45.392L155.242 41.612C155.074 34.532 154.99 30.344 154.99 29.048C154.99 28.232 155.05 27.608 155.17 27.176C155.386 26.456 155.806 25.928 156.43 25.592C157.078 25.232 158.086 24.98 159.454 24.836ZM185.186 24.692C186.77 24.62 188.174 24.584 189.398 24.584C193.238 24.584 195.278 24.956 195.518 25.7C195.566 25.844 195.59 25.952 195.59 26.024C195.59 26.528 195.218 26.984 194.474 27.392C193.922 27.68 193.13 27.836 192.098 27.86L190.478 27.932L190.73 29.264C190.922 30.272 191.054 31.028 191.126 31.532C191.198 32.108 191.234 33.368 191.234 35.312C191.234 37.28 191.198 38.804 191.126 39.884C191.078 40.748 191.054 41.252 191.054 41.396C191.054 41.468 191.066 41.528 191.09 41.576C191.138 41.6 191.21 41.624 191.306 41.648C191.426 41.672 191.534 41.696 191.63 41.72C191.726 41.72 191.87 41.744 192.062 41.792C192.254 41.816 192.422 41.84 192.566 41.864C194.942 42.296 196.13 42.992 196.13 43.952C196.13 44.168 196.058 44.384 195.914 44.6C195.626 45.032 195.002 45.32 194.042 45.464C193.082 45.608 191.318 45.68 188.75 45.68C186.086 45.68 184.394 45.596 183.674 45.428C181.85 44.996 180.938 44.444 180.938 43.772C180.938 42.86 182.162 42.2 184.61 41.792C185.378 41.672 186.014 41.528 186.518 41.36L186.59 35.42C186.614 34.604 186.638 33.62 186.662 32.468C186.686 31.316 186.698 30.452 186.698 29.876C186.722 29.3 186.734 28.964 186.734 28.868L186.842 28.22L184.61 28.148C183.074 28.1 182.102 27.968 181.694 27.752C181.19 27.512 180.938 27.236 180.938 26.924C180.938 26.636 181.094 26.324 181.406 25.988C181.79 25.532 182.234 25.22 182.738 25.052C183.266 24.86 184.082 24.74 185.186 24.692ZM211.979 24.836C212.291 24.548 212.567 24.488 212.807 24.656C213.095 24.848 213.299 25.46 213.419 26.492C213.539 27.524 213.623 29.456 213.671 32.288V34.484C213.671 38.084 213.515 40.808 213.203 42.656C213.107 43.28 212.927 43.892 212.663 44.492C212.423 45.068 212.207 45.416 212.015 45.536C211.895 45.608 211.787 45.644 211.691 45.644C210.443 45.644 208.211 42.548 204.995 36.356L203.771 33.98L203.843 35.276C203.963 37.628 204.023 39.26 204.023 40.172C204.023 41.996 203.807 43.34 203.375 44.204C202.823 45.332 202.175 45.896 201.431 45.896C200.927 45.896 200.555 45.608 200.315 45.032C200.075 44.48 199.955 43.784 199.955 42.944C199.955 42.272 200.003 41.54 200.099 40.748C200.267 39.068 200.363 36.524 200.387 33.116C200.411 29.444 200.495 27.44 200.639 27.104C200.951 26.336 201.347 25.952 201.827 25.952C202.163 25.952 202.487 26.12 202.799 26.456C203.543 27.272 205.199 29.936 207.767 34.448C209.255 37.016 210.047 38.3 210.143 38.3C210.167 38.3 210.179 38.288 210.179 38.264C210.179 38.216 210.191 37.94 210.215 37.436C210.239 36.908 210.263 36.188 210.287 35.276C210.311 34.364 210.335 33.488 210.359 32.648L210.503 27.392L211.043 26.276C211.499 25.436 211.811 24.956 211.979 24.836Z" fill="white"/>
</svg>
