<svg width="983" height="589" viewBox="0 0 983 589" fill="none" xmlns="http://www.w3.org/2000/svg">
<path d="M787.525 222.5L774.525 208.5L852.025 152.5H919.025L974.025 222.5L978.525 253.5L967.025 301.5L974.025 325.5L967.025 349L925.025 398.5L892.525 430.5L838.025 434L764.025 528L759.025 549.5L745.525 566.5L728.525 575L722.525 545.5L704.025 566.5L691.025 561V528H671.025L662.025 514L671.025 504L710.525 492.5L728.525 481.5L801.525 388L819.525 375.5L868.025 372.5L903.025 325.5V294.5L895.025 269L868.025 259H838.025L822.525 269L791.525 294.5L787.525 222.5Z" fill="#003E26" stroke="#009159"/>
<path d="M781.994 208.436C782.734 201.033 795.759 194.887 801.334 190.758C810.466 183.993 820.23 175.65 828.531 167.943C834.179 162.698 841.804 159.532 847.568 154.344C854.853 147.788 861.72 151.322 870.686 151.322C884.989 151.322 899.293 151.322 913.596 151.322C921.624 151.322 923.416 160.549 927.799 166.281C932.903 172.955 938.104 179.433 943.211 185.998C947.115 191.018 952.473 196.285 954.694 202.392C956.172 206.457 962.779 215.176 966.252 217.955C975.662 225.483 971.012 236.273 971.012 248C971.012 260.038 971.012 267.421 971.012 279C971.012 284.713 972.025 290.287 972.025 296C972.025 302.966 971.012 314.557 971.012 321C971.012 327.443 971.012 332.037 971.012 337.621C971.012 344.685 970.737 346.659 965.875 351.521C958.58 358.815 951.396 366 944.117 373.279C935.647 381.749 929.208 391.663 920.698 400.173C910.883 409.988 907.217 431.45 890.706 431.45C874.836 431.45 856.891 426.667 841.147 430.165C837.223 431.037 832.904 438.13 830.268 440.969C826.048 445.514 822.793 449.941 819.465 455.171C816.601 459.673 812.702 466.172 808.511 469.525C798.972 477.156 793.913 488.883 785.393 497.402C781.331 501.465 778.171 507.756 774.59 512.36C771.849 515.884 767.62 518.671 765.676 522.559" stroke="#009159" stroke-width="20" stroke-linecap="round"/>
<path d="M792.451 299.896C798.299 291.71 806.823 285.596 811.797 276.753C814.088 272.681 817.287 269.432 820.479 266.117C823.793 262.676 824.667 262.81 829.748 262.683C837.305 262.494 844.743 261.691 852.193 260.45C855.889 259.834 859.585 258.466 863.331 258.217C868.048 257.902 872.514 257.184 877.262 257.184C880.206 257.184 882.795 259.644 885.134 261.204C889.02 263.794 892.503 266.63 895.464 270.249C897.735 273.024 901.376 277.339 904.509 279.182C905.106 279.533 905.011 279.839 905.011 280.522C905.011 284.671 905.066 288.826 904.899 292.973C904.611 300.158 903.504 307.268 903.504 314.469C903.504 319.019 904.795 325.875 902.666 329.99C894.663 345.463 881.425 357.881 872.237 372.647C871.204 374.307 868.689 376.678 867.072 377.756C866.105 378.4 865.002 378.265 863.89 378.314C857.296 378.607 849.041 377.363 842.525 378.314C833.077 379.693 827.547 378.314 818.025 378.314C815.083 378.314 808.385 380.142 805.525 381C803.137 381.716 802.162 388.872 800.525 390.5M799.989 390.849C797.355 396.409 791.46 401.343 786.924 405.309C780.53 410.9 774.269 416.932 769.141 423.734C762.027 433.171 755.288 442.878 748.064 452.209C740.049 462.561 735.443 475.997 726.121 485.318" stroke="#009159" stroke-width="20" stroke-linecap="round"/>
<path d="M723.521 489.922C716.531 489.922 709.938 489.768 703.123 491.282C697.614 492.507 692.441 495.469 686.805 496.722C681.087 497.992 665.534 503.054 663.386 509.262C660.724 516.952 661.833 525.525 670.487 527.998C680.35 530.816 684.978 526.168 693.906 522.861C701.156 520.176 707.579 515.554 714.606 512.36C719.985 509.915 714.49 513.214 712.944 514.702C709.478 518.04 706.452 520.404 703.123 523.918C696.835 530.556 693.325 536.355 692.169 545.6C691.454 551.322 687.885 562.557 694.36 566.678C702.12 571.616 709.167 561.657 712.642 556.252C715.124 552.391 715.868 548.619 718.686 544.996C720.838 542.229 723.308 539.635 725.485 536.837C726.078 536.075 726.24 533.077 726.24 534.042C726.24 537.265 726.24 540.488 726.24 543.712C726.24 549.252 726.24 554.792 726.24 560.332C726.24 565.387 726.603 573.435 731 576.952C740.468 584.527 751.516 567.337 754.797 559.954C760.106 548.01 761.596 538.65 761.596 525.278" stroke="#009159" stroke-width="20" stroke-linecap="round"/>
<path d="M144.025 266L184.525 217L190.025 209L253.525 241L248.525 252L208.025 295L184.525 318.5H147.525L122.525 327.5L99.5254 346L88.0254 363L91.5254 392.5L115.525 408.5L165.025 405.5L211.025 442.5L243.025 475.5L278.025 479L296.025 487.5V502L278.025 506.5L270.525 515.5L283.025 533L278.025 545L259.025 541L264.525 553V568L248.525 572L230.525 560.5L211.025 533L184.525 496.5L144.025 463.5L129.025 460L77.5254 463.5L10.5254 398V355L27.5254 327.5L62.5254 275L144.025 266Z" fill="#003E26" stroke="#009159"/>
<path d="M243.496 477.685C253.6 477.685 262.909 475.296 273.111 477.382C281.362 479.07 294.783 484.071 299.25 491.887C308.461 508.007 273.968 507.601 266.009 507.601C263.227 507.601 260.972 507.802 258.455 506.544C256.964 505.798 251.595 502.185 253.015 503.522C256.584 506.881 261.129 509.709 265.254 512.361C268.978 514.755 271.039 519.136 274.697 521.879C279.154 525.222 284.292 531.962 284.292 537.518C284.292 544.349 280.346 544.317 274.017 544.317C262.174 544.317 250.862 530.53 243.194 522.862C233.432 513.099 264.488 544.131 265.254 557.915C265.706 566.057 263.817 568.794 255.055 568.794C245.137 568.794 240.743 567.729 232.618 561.693C229.425 559.321 223.188 557.065 221.739 553.08C220.155 548.725 216.892 544.719 214.26 540.917C209.875 534.584 206.783 527.323 202.701 521.2" stroke="#009159" stroke-width="20" stroke-linecap="round"/>
<path d="M243.565 251C241.796 251.221 237.735 255.669 236.533 256.871C232.524 260.88 228.899 265.213 225.132 269.399C218.887 276.338 212.511 283.196 206.698 290.461C201.575 296.865 194.506 301.315 189.835 308.109C188.667 309.808 186.682 312.423 185.056 313.674C183.652 314.753 183.017 316.605 181.506 317.36C170.542 317.36 160.295 317.44 149.555 320.125C140.846 322.302 132.151 324.734 123.133 324.734C120.251 325.022 115.451 329.326 113.78 331.493C111.312 334.692 108.172 337.851 105.314 340.709L97.6679 348.356C96.0983 349.925 94.9623 352.03 93.0254 352.998M93.0254 353.613C93.0254 363.8 93.0254 374.5 94.2543 383.721C95.0254 390 104.332 392.378 109.615 396.487C111.385 397.863 113.16 399.217 114.872 400.618C116.146 401.66 117.328 403.496 118.832 403.997L166.759 403.997C170.236 404.191 174.177 406.912 176.317 409.562C180.863 415.189 186.596 419.64 192.088 424.274C201.313 432.058 209.901 439.993 218.236 448.716C225.453 456.268 231.206 465.759 237.421 474.044" stroke="#009159" stroke-width="20" stroke-linecap="round"/>
<path d="M185.024 216.594C174.825 231 144.525 270.987 138.525 270.987C129.243 270.987 115.197 270.987 105.473 270.987C93.6616 270.987 81.4245 273.258 69.7395 273.707C67.4691 273.794 59.2056 277.14 57.8787 278.5C56.5517 279.86 52.8575 286.479 50.3996 290.781C46.0261 298.434 42.5747 306 35.1391 315.56C27.7036 325.12 15.4501 345.663 12.6262 348.801C7.93021 354.018 10.9642 368.886 10.9642 375.544C10.9642 381.892 12.6259 388.088 12.6259 394.5C12.6259 401.257 15.7921 404.352 21.5407 408.331C25.2896 410.927 26.6982 414.805 31.3618 417.548C36.0254 420.291 38.3185 424.839 43.0254 428.5C47.8602 432.26 53.6489 436.058 57.8787 440.288C61.833 444.242 67.0089 448.291 69.7395 453.206C73.7599 460.443 74.0499 461.365 82.7336 461.365C88.5003 461.365 94.267 461.365 100.034 461.365C105.75 461.365 110.87 461.299 116.352 460.081C120.733 459.107 126.177 457.286 130.63 457.286C138.167 457.286 143.664 464.217 149.366 468.164C154.166 471.488 159.863 475.639 163.946 479.723C167.2 482.977 171.244 483.812 174.825 486.598C178.618 489.548 180.761 493.156 185.024 495.663C191.612 499.539 193.403 509.75 199.982 513.039" stroke="#009159" stroke-width="20" stroke-linecap="round"/>
<mask id="mask0_964_333" style="mask-type:alpha" maskUnits="userSpaceOnUse" x="161" y="0" width="661" height="477">
<rect x="161" width="661" height="477" fill="url(#paint0_linear_964_333)"/>
</mask>
<g mask="url(#mask0_964_333)">
<path d="M356.363 31.6535C393.324 31.6535 444.528 23.4945 481.468 23.4945H518.335C524.54 23.4945 562.528 22.2641 563.059 27.574C563.633 33.3156 566.554 39.4078 568.196 44.9497C573.517 62.9086 570.645 71.8203 581.5 87.5C583.583 90.5086 590.5 98 595.77 99.6456C601.041 101.291 623.917 99.6456 626.971 99.6456C630.025 99.6456 637.662 106.294 641.25 109.164C646.712 113.534 647.178 120.648 649.786 126.842C651.531 130.987 651.557 135.39 654.168 139.383C656.389 142.78 659.363 147.029 660.967 150.64C663.456 156.239 671.789 163.341 676.228 167.335C680.776 171.429 698.392 168.997 704.407 168.997C714.115 168.997 732.906 164.904 740.14 171.415C749.751 180.064 760.85 194.059 765.675 201.029C770.5 208 773.848 212.548 779.5 221C785.152 229.452 791.512 235.68 791.512 245.451V274.007C791.512 279.046 794.538 299.984 790.152 302.564C775.404 311.239 770.387 328.963 761.596 342.151C756.074 350.433 732.065 345.777 722.765 345.777C713.188 345.777 696.86 342.513 688.768 347.137C683.18 350.33 678.104 358.226 673.206 362.775C661.352 373.782 644.885 392.459 640.796 397.98C636.707 403.5 638.5 405.61 630.22 405.61C621.94 405.61 602.5 402.9 594 409.01C585.5 415.119 577.139 426.585 573 431C568.861 435.415 564 443.155 556 448.5C548 453.845 541 451.92 529.5 451.845C518 451.769 510.238 453.731 500.5 450C490.762 446.269 479 426.5 473 421C467 415.5 425.176 425 414 415C402.824 405 387 355.797 366 355.797C345 355.797 308.5 358.819 303 355.797C297.5 352.776 271 321 259.5 308.5C248 296 257.979 242.134 252.335 237.745C245.688 232.575 234.957 231.705 227.858 226.791C221.306 222.255 211.568 219.953 204.061 217.272C199.462 215.629 195.48 212.228 191.218 209.793C180.451 203.64 185.023 196.999 185.023 185.996C185.023 176.65 186.383 168.082 186.383 158.874C186.383 155.447 187.743 151.303 187.743 147.24C187.743 140.81 194.437 138.581 198.319 134.699C207.441 125.577 222.165 127.496 230 117.5C239.533 105.338 240.91 91.6427 254.677 87.7092C260.887 85.935 307 89.7092 314 85C321 80.2908 343.415 31.6535 356.363 31.6535Z" fill="#005232" stroke="#00C177" stroke-width="20" stroke-linecap="round"/>
<g opacity="0.8">
<path d="M500.958 189.056C502.182 200.071 518.799 198.915 526.431 198.491C530.805 198.248 536.939 190.594 537.805 186.698C538.916 181.698 541.526 179.345 541.526 173.961C541.526 164.573 540.949 153.561 529.261 152.262C524.279 151.708 519.923 150.375 514.638 150.375C510.803 150.375 503.759 152.52 501.691 156.036C496.847 164.271 492.738 173.289 500.958 181.509C508.438 188.989 530.205 190.891 530.205 175.848C530.205 166.159 517.323 154.229 508.715 163.793C506.068 166.733 509.162 173.018 512.751 173.018C515.89 173.018 524.544 174.777 524.544 170.187" stroke="black" stroke-width="20" stroke-linecap="round"/>
<path d="M523.623 91.4869C505.803 91.4869 497.512 108.562 490.231 122.083C485.898 130.131 482.827 140.783 482.827 149.96C482.827 156.994 480.939 167.079 483.507 173.757C486.298 181.012 487.973 189.332 492.346 195.893C496.232 201.722 502.416 204.059 507.305 208.433C517.152 217.244 536.971 212.419 542.963 201.634C549.647 189.602 554.191 178.868 556.183 164.918C557.385 156.504 558.979 147.513 558.979 139.006C558.979 132.914 560.854 122.342 558.299 116.72C554.294 107.909 553.753 99.3753 544.02 94.5088C535.777 90.3872 526.188 87.5104 518.183 92.8467" stroke="white" stroke-width="20" stroke-linecap="round"/>
</g>
<g opacity="0.8">
<path d="M376.424 191.886C381.053 192.4 387.404 198.254 390.156 201.792C392.774 205.158 401.715 206.643 405.671 204.885C410.71 202.645 416.261 201.108 420.294 197.075C423.904 193.465 426.254 188.877 428.523 184.338C432.082 177.221 431.53 162.819 425.273 157.188C418.321 150.931 406.137 152.869 398.542 155.039C391.921 156.931 380.839 166.593 379.307 173.489C378.006 179.34 378.827 182.025 383.028 186.225C386.827 190.025 394.308 191.886 399.538 191.886C405.203 191.886 419.433 182.861 419.822 175.847C420.099 170.864 420.412 164.526 413.742 164.526C406.988 164.526 405.401 166.982 400.01 169.977C396.418 171.972 395.926 181.353 400.01 183.395" stroke="black" stroke-width="20" stroke-linecap="round"/>
<path d="M393.079 91.489C389.647 91.9179 385.139 106.175 383.56 109.167C377.753 120.17 375.204 130.42 372.077 142.483C368.807 155.094 369.961 169.388 369.961 182.296C369.961 192.978 374.262 199.236 380.16 207.755C383.238 212.201 388.787 217.163 394.514 217.879C399.387 218.488 412.023 219.748 415.894 216.292C422.147 210.709 428.192 206.01 431.91 198.237C436.815 187.981 438.781 179.157 440.975 167.942C442.624 159.518 443.393 150.404 443.393 141.803C443.393 132.503 444.982 121.65 443.317 112.491C441.636 103.243 431.405 94.4592 425.035 88.0894C418.093 81.1478 411.067 83.7487 402.598 84.6898C393.696 85.6788 388.629 98.0385 386.279 105.087" stroke="white" stroke-width="20" stroke-linecap="round"/>
</g>
<g opacity="0.8">
<path d="M394.025 307L404.025 283L428.525 260.5H456.525H487.025L517.025 283L561.025 344V373V395.5L549.525 407.5L527.525 401.5L517.025 382L505.525 363.5L487.025 349L465.025 344L435.525 349L413.525 344L394.025 332V307Z" fill="black"/>
<path d="M391.719 318.583C391.719 310.063 395.16 296.461 401.238 290.026C409.404 281.379 415.563 267.386 427.679 262.98C445.091 256.649 471.905 252.681 488.947 262.149C497.989 267.173 506.398 271.827 514.104 279.147C526.047 290.493 534.073 303.155 543.341 316.543C552.559 329.857 560.3 341.743 562.757 358.018C564.457 369.282 565.828 391.076 558.224 400.853C546.585 415.817 518.459 401.559 516.824 385.215C515.075 367.723 492.807 347.409 477.691 342.758C462.569 338.105 447.514 347.139 432.514 347.139C418.686 347.139 394.438 343.205 394.438 325.382" stroke="white" stroke-width="20" stroke-linecap="round"/>
</g>
</g>
<defs>
<linearGradient id="paint0_linear_964_333" x1="491.5" y1="0" x2="491.5" y2="477" gradientUnits="userSpaceOnUse">
<stop offset="0.658654"/>
<stop offset="0.961538" stop-opacity="0"/>
</linearGradient>
</defs>
</svg>
