<svg width="61" height="100" viewBox="0 0 61 100" fill="none" xmlns="http://www.w3.org/2000/svg">
<path d="M18.7449 45.508C18.8169 45.508 18.5449 45.4721 18.5449 45.0858C18.5449 43.9897 19.6204 43.5302 20.6115 43.5081C21.3772 43.4911 20.9264 44.1454 20.567 44.397C20.3495 44.5493 20.7387 44.6521 20.8559 44.7414C21.1712 44.9816 21.4192 45.3381 21.5765 45.7298M21.5765 45.7298C21.6072 45.8065 21.6346 45.8845 21.6582 45.9633M21.5765 45.7298C21.5229 45.7238 21.4684 45.7226 21.4135 45.7256M21.5765 45.7298C21.6183 45.7344 21.6597 45.7419 21.7003 45.7525C21.8095 45.7808 21.7765 45.863 21.6582 45.9633M21.6582 45.9633C21.7347 46.2181 21.7729 46.4805 21.767 46.7302C21.7488 47.4951 19.8647 48.34 19.7782 47.4746C19.7652 47.3444 19.7824 47.2074 19.8241 47.0698M21.6582 45.9633C21.5592 46.0473 21.4004 46.1439 21.2152 46.2324M19.8241 47.0698C19.8336 47.0384 19.8443 47.007 19.8563 46.9756M19.8241 47.0698C20.0721 47.0417 20.3677 46.8908 20.5836 46.6925M19.8241 47.0698C19.7473 47.0785 19.675 47.0754 19.6112 47.0583M19.8563 46.9756C19.8889 46.89 19.9304 46.8046 19.9795 46.7211M19.8563 46.9756C20.0251 46.9004 20.1374 46.803 20.2025 46.6986M19.8563 46.9756C19.8215 46.9911 19.7844 47.0056 19.7449 47.0191C19.7123 47.0301 19.666 47.0442 19.6112 47.0583M19.9795 46.7211C20.0068 46.6746 20.0364 46.6286 20.0681 46.5835M19.9795 46.7211C20.0234 46.6984 20.0662 46.6699 20.1071 46.635M19.9795 46.7211C19.7658 46.8313 19.5257 46.8036 19.3504 46.7102M20.0681 46.5835C20.0864 46.5574 20.1054 46.5315 20.1251 46.506M20.0681 46.5835C20.0791 46.6022 20.0921 46.6195 20.1071 46.635M20.0681 46.5835C20.052 46.5562 20.0401 46.5256 20.0322 46.4926M20.1251 46.506C20.167 46.4517 20.2118 46.3988 20.2591 46.3478M20.1251 46.506C20.1569 46.5087 20.19 46.5096 20.2241 46.5091M20.1251 46.506C20.0928 46.5033 20.0617 46.4989 20.0322 46.4926M20.2591 46.3478C20.2806 46.3246 20.3026 46.3018 20.3251 46.2795M20.2591 46.3478C20.2325 46.2482 20.1708 46.1578 20.0828 46.0909M20.2591 46.3478C20.2668 46.3765 20.2715 46.4059 20.2731 46.4358M20.3251 46.2795C20.4986 46.1072 20.7 45.9613 20.9096 45.8623M20.3251 46.2795C20.3308 46.1561 20.2346 46.0776 20.1007 46.0485M20.3251 46.2795C20.323 46.3255 20.3068 46.3776 20.2731 46.4358M20.9096 45.8623C21.0394 45.801 21.1724 45.7577 21.3039 45.7372M20.9096 45.8623C20.8661 45.6489 20.6928 45.5609 20.4914 45.5601M20.9096 45.8623C20.9324 45.9744 20.9195 46.1211 20.8559 46.308C20.8464 46.336 20.8345 46.364 20.8206 46.3918M21.3039 45.7372C21.3406 45.7316 21.3771 45.7276 21.4135 45.7256M21.3039 45.7372C21.2553 45.5189 21.0691 45.3661 20.7261 45.4268M21.3039 45.7372C21.3103 45.7662 21.3143 45.7964 21.316 45.8273M21.4135 45.7256C21.5284 45.5086 21.1431 45.2645 20.7261 45.4268M21.4135 45.7256C21.3948 45.7609 21.363 45.7954 21.316 45.8273M21.2152 46.2324C21.0921 46.2912 20.9573 46.3464 20.8206 46.3918M21.2152 46.2324C21.2882 46.1 21.3228 45.9566 21.316 45.8273M21.2152 46.2324C21.1272 46.3922 20.9832 46.536 20.7893 46.6191C20.7148 46.651 20.6463 46.6752 20.5836 46.6925M20.8206 46.3918C20.6324 46.4542 20.4407 46.4981 20.2709 46.5074M20.8206 46.3918C20.7676 46.4972 20.6842 46.6 20.5836 46.6925M20.2709 46.5074C20.2551 46.5083 20.2395 46.5088 20.2241 46.5091M20.2709 46.5074C20.2737 46.4834 20.2744 46.4594 20.2731 46.4358M20.2709 46.5074C20.2635 46.5715 20.2414 46.6363 20.2025 46.6986M20.2241 46.5091C20.235 46.4945 20.2456 46.4794 20.2559 46.4635C20.2621 46.4541 20.2678 46.4449 20.2731 46.4358M20.2241 46.5091C20.1876 46.558 20.1483 46.5998 20.1071 46.635M20.0322 46.4926C19.8675 46.4574 19.7507 46.3637 19.7226 46.1858C19.7171 46.1507 19.7169 46.1163 19.7215 46.0827M20.0322 46.4926C20.0051 46.3794 20.0248 46.2367 20.0828 46.0909M19.7215 46.0827C19.7264 46.0457 19.7372 46.0096 19.7528 45.975M19.7215 46.0827C19.5415 46.1507 19.3842 46.2935 19.356 46.5191C19.3471 46.5904 19.3455 46.6539 19.3504 46.7102M19.7215 46.0827C19.8111 46.0489 19.9063 46.0336 19.994 46.036M19.7528 45.975C19.8612 45.7339 20.2048 45.5589 20.4914 45.5601M19.7528 45.975C19.639 45.9694 19.5122 45.9922 19.3782 46.0525C18.9549 46.2429 19.0699 46.5607 19.3504 46.7102M19.7528 45.975C19.8422 45.9793 19.9236 46.0012 19.994 46.036M20.4914 45.5601C20.3157 45.6915 20.1804 45.8703 20.1007 46.0485M20.4914 45.5601C20.5396 45.524 20.5908 45.4915 20.6448 45.4636C20.672 45.4496 20.6991 45.4373 20.7261 45.4268M20.5836 46.6925C20.4181 46.7381 20.2926 46.7354 20.2025 46.6986M19.6112 47.0583C19.4688 47.0202 19.3679 46.9124 19.3504 46.7102M19.6112 47.0583C19.3546 47.124 18.9126 47.1882 18.8338 46.9302C18.6161 46.2176 20.1116 45.6102 20.5781 45.4636C20.6304 45.4472 20.6797 45.4351 20.7261 45.4268M19.994 46.036C20.0313 46.037 20.0672 46.0412 20.1007 46.0485M19.994 46.036C20.026 46.0518 20.0556 46.0702 20.0828 46.0909M20.1007 46.0485C20.0944 46.0626 20.0884 46.0768 20.0828 46.0909M20.1071 46.635C20.1328 46.6616 20.1645 46.6831 20.2025 46.6986M21.316 45.8273C21.2725 45.8569 21.2159 45.8843 21.1448 45.908M37.7429 45.3088C38.5376 45.3088 38.3686 45.7313 37.942 46.0164M37.942 46.0164C37.8943 46.0483 37.8435 46.0784 37.7904 46.106M37.942 46.0164C38.0903 45.978 38.2219 45.9304 38.3207 45.8755C38.4303 45.8146 38.5565 45.7032 38.679 45.5624M37.942 46.0164C37.0679 46.243 35.6132 46.1505 36.8763 45.3422C37.4354 44.9844 38.2595 45.2117 38.679 45.5624M37.7904 46.106C37.6898 46.1584 37.5812 46.2018 37.4713 46.231M37.7904 46.106C37.7227 46.0851 37.6171 46.0862 37.4651 46.1199C37.3818 46.1384 37.3965 46.1819 37.4713 46.231M37.7904 46.106C37.9147 46.1443 37.9115 46.2564 37.8329 46.375M37.4713 46.231C37.4137 46.2463 37.3558 46.2577 37.2985 46.2644C34.7066 46.5673 34.9587 44.1657 37.2763 43.7978C38.1348 43.6615 38.5984 43.7059 38.7976 43.8382M37.4713 46.231C37.5453 46.2797 37.6782 46.3339 37.8329 46.375M38.7976 43.8382C39.4493 44.2709 37.2718 45.6437 36.8318 44.7089C36.5653 44.1424 38.3631 43.7612 38.6651 43.8089C38.7127 43.8165 38.7569 43.8263 38.7976 43.8382ZM38.7976 43.8382C39.5599 44.0615 39.1462 45.0256 38.679 45.5624M38.679 45.5624C39.0052 45.835 39.0868 46.182 38.6095 46.3866C38.4032 46.475 38.0884 46.443 37.8329 46.375M37.8329 46.375C37.7426 46.5112 37.5531 46.6562 37.3429 46.7088M16.1441 58.7061C15.6433 59.1353 16.4589 60.9369 16.6552 61.3948C17.1289 62.5003 17.8726 63.3293 18.544 64.3058C19.6191 65.8695 21.1002 66.7896 22.5882 67.9056C24.3058 69.1938 26.4141 69.1055 28.4435 69.1055C31.0386 69.1055 32.7401 68.0976 34.9542 66.9167C38.9846 64.7672 41.9928 61.7835 43.7427 57.5061C44.2118 56.3593 45.0352 53.762 45.3426 56.5284C45.6563 59.3519 46.3425 62.0903 46.3425 64.9391C46.3425 68.6462 45.141 70.83 43.0538 73.7942C40.3631 77.6155 37.2818 80.9138 33.0432 83.0048C29.6302 84.6886 26.5679 85.9441 22.6993 85.9047C19.4563 85.8716 17.5981 84.1234 15.8997 81.5049C14.6992 79.6541 13.112 77.6547 12.6443 75.4719C12.0637 72.7625 11.8466 69.517 12.2554 66.7723C12.6594 64.0595 13.6507 61.893 14.8553 59.4838C15.3304 58.5336 15.8128 57.5 16.1441 56.5062M25.3452 16.1094C20.7609 20.277 18.3219 25.9914 14.7458 30.9086C12.0344 34.6367 9.64866 38.5918 7.59057 42.708C3.75875 50.3717 2.14641 58.3947 2.14641 67.0068C2.14641 68.8385 2.10703 70.6752 2.14641 72.5065C2.21658 75.7695 3.53394 79.1663 4.3463 82.306C4.97855 84.7495 5.80373 87.1704 6.54618 89.5834C6.72681 90.1704 7.57466 90.7341 7.99055 91.15C8.74748 91.9069 9.54178 92.5916 10.3349 93.3054C11.6073 94.4506 12.6764 94.8499 14.368 95.3053L14.5392 95.3514C17.2189 96.0729 19.8982 96.7943 22.5898 97.4607C25.4783 98.176 28.5354 97.9163 31.4645 97.6676L31.5449 97.6607C34.0732 97.4461 36.6239 97.3073 39.1445 97.0608C44.7579 96.5116 49.9601 91.7511 53.6438 87.7946C55.8906 85.3813 57.7257 82.1537 57.8991 78.8395C58.0559 75.8432 57.5832 72.6802 58.188 69.7288C59.2087 64.7477 59.4862 59.1659 58.6657 54.1408C57.9599 49.8177 56.7114 45.5852 56.1436 41.2414C55.9975 40.1234 55.8798 39.345 55.3992 38.3305C54.3513 36.1181 53.3234 33.7436 51.855 31.7752C50.5846 30.0724 49.0104 28.6326 47.6996 26.9644C46.6641 25.6465 45.4247 24.4804 44.0443 23.5201C42.0805 22.154 39.863 21.1213 37.8557 19.8203C35.9883 18.61 34.3227 17.7093 32.0338 17.7093C31.1204 17.7093 30.2683 17.3093 29.345 17.3093C28.1988 17.3093 27.046 17.2684 25.9007 17.3093C25.3497 17.329 24.5905 17.6169 24.3008 18.1093C24.0193 18.5879 23.1453 19.8645 23.1453 19.3092M26.1436 15.509C26.1436 14.9731 26.1417 14.3025 26.1385 13.5481M26.1385 13.5481C26.1383 13.5235 26.1382 13.4989 26.1381 13.4742M26.1385 13.5481C26.1106 13.6213 25.9836 13.6849 25.8239 13.7382M26.1385 13.5481C26.1433 13.5354 26.1451 13.5224 26.1436 13.5091C26.1423 13.4975 26.1405 13.4858 26.1381 13.4742M26.1381 13.4742C26.138 13.4358 26.1378 13.3973 26.1376 13.3585M26.1381 13.4742C26.1309 13.4388 26.1188 13.4033 26.1024 13.3679M26.1376 13.3585C26.1374 13.2998 26.1371 13.2406 26.1368 13.1809M26.1376 13.3585C26.1258 13.3622 26.114 13.3653 26.1024 13.3679M26.1376 13.3585C26.3093 13.3056 26.5042 13.1426 26.71 12.9079M26.1368 13.1809C26.1124 7.87661 26.0365 -0.933783 26.1436 2.70968C26.2365 5.86759 26.5486 9.0066 26.6821 12.1656M26.1368 13.1809C26.2351 13.0232 26.3393 12.8698 26.4495 12.7203M26.1368 13.1809C26.1125 13.22 26.0885 13.2593 26.0649 13.2989M26.6821 12.1656C26.6856 12.2469 26.6889 12.3282 26.6921 12.4095M26.6821 12.1656C27.338 11.4819 27.9246 10.7532 28.4702 9.9907M26.6821 12.1656C26.6036 12.2475 26.5241 12.3287 26.4436 12.4092C26.279 12.5739 26.3134 12.6687 26.4495 12.7203M26.6921 12.4095C26.6968 12.5289 26.7012 12.6482 26.7053 12.7676M26.6921 12.4095C26.8205 12.2537 26.9562 12.1019 27.0991 11.9536C27.3111 11.7338 27.5321 11.5279 27.7608 11.3335M26.6921 12.4095C26.6082 12.5113 26.5274 12.6148 26.4495 12.7203M26.7053 12.7676C26.7069 12.8144 26.7085 12.8612 26.71 12.9079M26.7053 12.7676C26.6038 12.7599 26.5149 12.7451 26.4495 12.7203M26.7053 12.7676C26.7429 12.7705 26.7823 12.7724 26.8229 12.7735M26.71 12.9079C26.7313 13.5591 26.7436 14.2112 26.7436 14.8646C26.7436 15.2632 26.7263 15.6663 26.7436 16.0645C26.7772 16.8374 27.3506 14.6354 27.7547 13.9758C28.02 13.5426 28.2924 13.1205 28.5725 12.7092M26.71 12.9079C26.7473 12.8654 26.785 12.8205 26.8229 12.7735M28.5725 12.7092C29.4997 11.3475 30.5114 10.104 31.6299 8.96833M28.5725 12.7092H27.8547C27.7815 12.7092 27.2394 12.7845 26.8229 12.7735M28.5725 12.7092H30.0041M31.6299 8.96833C33.0271 7.54982 34.591 6.29974 36.3653 5.19844C36.461 5.13908 37.6156 4.65141 37.3208 5.13178C36.4081 6.61925 34.2144 7.61154 32.7544 8.38716C32.3806 8.58577 32.0046 8.77741 31.6299 8.96833ZM31.6299 8.96833C30.2628 9.66513 28.9145 10.3524 27.7608 11.3335M27.7608 11.3335C27.4559 11.8723 27.1302 12.3927 26.8229 12.7735M27.7608 11.3335C28.0205 10.8743 28.2652 10.4017 28.4702 9.9907M26.0649 13.2989C26.0495 13.3249 26.0342 13.3509 26.0191 13.3771M26.0649 13.2989C26.0791 13.3219 26.0917 13.3449 26.1024 13.3679M26.0649 13.2989C25.8878 13.0131 25.4477 12.732 25.0209 12.494M26.0191 13.3771C25.9509 13.4949 25.8858 13.6152 25.8239 13.7382M26.0191 13.3771C25.9519 13.3764 25.8895 13.3547 25.8325 13.3091C25.542 13.0767 25.2737 12.799 25.0209 12.494M26.0191 13.3771C26.0461 13.3774 26.0739 13.3742 26.1024 13.3679M25.8239 13.7382C25.7647 13.8556 25.7084 13.9755 25.6548 14.098C25.5734 14.284 25.5117 14.668 25.3215 14.7868C25.1596 14.888 24.8994 14.8044 24.5926 14.6147M25.8239 13.7382C25.7289 13.7699 25.6223 13.7979 25.5182 13.8222M24.5926 14.6147C24.432 14.5154 24.2586 14.3871 24.0797 14.2409M24.5926 14.6147C25.243 14.3765 25.7135 14.1016 25.5182 13.8222M24.5926 14.6147C23.6893 14.9455 22.4392 15.2056 22.1438 15.309C21.226 15.6303 20.2945 15.9089 19.3696 16.2038M24.0797 14.2409C23.1979 13.5202 22.1839 12.3667 21.9216 12.1314C20.2124 10.5979 17.4337 9.82839 15.1664 9.72043C14.6084 9.69386 14.0473 9.70932 13.4887 9.70932C12.4183 9.70932 15.6323 9.67304 16.6997 9.75376C18.722 9.90671 20.5262 10.4071 22.1438 11.6203C23.1194 12.352 24.1637 13.0591 25.2548 13.6202C25.3857 13.6875 25.4712 13.755 25.5182 13.8222M24.0797 14.2409C23.6264 14.426 23.172 14.6414 22.766 14.7979C21.6269 15.2372 20.4926 15.7068 19.3696 16.2038M24.0797 14.2409C24.4079 14.1069 24.7355 13.9887 25.0437 13.9202C25.1247 13.9022 25.3168 13.8693 25.5182 13.8222M19.3696 16.2038C17.9947 16.6422 16.6344 17.1165 15.3553 17.82C14.763 18.1458 13.7493 18.9543 15.1664 18.22C16.5407 17.5079 17.9461 16.8338 19.3696 16.2038ZM25.0209 12.494C24.6514 12.288 24.2918 12.1144 24.1215 11.9981C23.1963 11.3664 22.1685 10.5569 21.555 9.59821C20.9228 8.61036 20.0927 7.57402 19.5884 6.50948C19.4028 6.11752 19.7663 6.21762 19.9884 6.35394C21.1182 7.04724 22.0005 8.23404 22.7994 9.2649C23.5356 10.2149 24.1962 11.4994 25.0209 12.494ZM28.4702 9.9907C28.7577 9.4145 28.9675 8.95929 29.0324 8.83159C29.4648 7.98061 30.4291 5.03339 31.3878 4.55403C31.6473 4.42428 31.2869 5.13005 31.1767 5.39843C30.7998 6.31615 30.2828 7.17708 29.7657 8.02052C29.3513 8.69635 28.925 9.35524 28.4702 9.9907ZM30.0041 12.7092C29.5792 13.2575 29.2413 13.8772 29.3546 14.3869C29.4337 14.7427 30.8604 13.9442 31.0989 13.8647C34.3373 12.7852 38.0605 13.1662 41.4206 12.8203C43.1971 12.6374 41.4941 12.7092 40.8762 12.7092H30.0041ZM30.0041 12.7092C30.3712 12.2354 30.8034 11.8149 31.0656 11.5648C32.4666 10.2285 34.4409 9.38461 36.2987 8.90936C37.2469 8.66679 38.3586 8.30939 39.343 8.30939M30.1445 15.1077C34.8492 15.1077 40.0005 14.8095 44.5438 16.1076M24.1445 27.5068C24.1998 27.3133 24.9543 27.5155 25.1556 27.4845C26.5645 27.2678 27.7279 25.7762 29.1332 25.3291C30.437 24.9142 31.3738 25.2659 32.4441 26.0068C34.5465 27.4623 37.287 26.7068 39.7437 26.7068M23.1445 31.1079C24.3541 31.1079 24.6888 30.9086 26 30.9086C27.265 30.9086 27.8462 30.8333 29 30C30.4879 28.9254 32.4441 30 32.4441 30C34.1191 30.7279 37.1802 30.3787 38.7976 30.5C40.019 30.5916 40.9602 29.908 42.1436 29.908M17 50.5C17.8685 50.9825 18.5441 51.0366 19.3782 51.5C20.2949 52.0093 22.4848 51.2383 23.1443 50.9086M34.9542 50C35.4232 50.0521 36.5909 50.1629 37.0207 50.3943C37.3951 50.5959 37.9291 50.5251 38.3428 50.5054C39.1117 50.4688 40.8404 49.6063 41.1435 49M14.5449 41.1095C14.8021 41.0773 15.1573 40.4971 15.3449 40.3095C15.7662 39.8882 16.2866 39.8137 16.8337 39.6206C17.9342 39.2322 18.8865 38.6589 19.9891 38.2652C20.7871 37.9802 21.4847 37.5273 22.3001 37.2652C22.8214 37.0976 23.3117 36.835 23.8444 36.7097C24.145 36.639 25.4045 36.3427 24.4111 36.6208C21.8017 37.3514 17.6712 38.9206 16.4559 41.6983C16.0519 42.6218 16.6479 41.3025 16.9004 40.9984C17.553 40.2122 18.2642 39.6312 19.1336 39.1096C20.7424 38.1442 22.4295 37.5096 24.3444 37.5096M36.3438 36.9077C36.7854 36.9077 37.2279 36.9032 37.6705 36.8991M37.6705 36.8991C38.4286 36.8922 39.1873 36.8867 39.9436 36.9077C41.1068 36.94 41.9464 37.6629 42.8545 38.2965C43.1925 38.5323 43.5268 38.7364 43.8503 38.9362M37.6705 36.8991C37.8633 36.9744 38.0634 37.0381 38.2548 37.1077C39.2281 37.4616 40.2642 38.2423 41.1435 38.8076C41.8684 39.2736 42.5769 39.8713 43.3878 40.152C43.9852 40.3587 44.5739 40.5893 45.1433 40.863C45.551 41.059 46.5141 41.674 46.0321 40.8853C45.4569 39.9439 44.6894 39.4543 43.8503 38.9362M37.6705 36.8991C37.558 36.8552 37.448 36.8074 37.3437 36.7521C36.7399 36.4325 39.0574 36.5077 39.2992 36.5077C40.6779 36.5077 41.8407 37.1502 42.9545 37.9299C43.3032 38.1739 43.5857 38.5424 43.8503 38.9362M43.8503 38.9362C44.3157 39.6285 44.7258 40.3987 45.3433 40.7075M21.1445 90.5037C23.434 90.5037 26.2892 90.9736 28.4664 90.3037C30.0323 89.8219 31.4996 89.9037 33.1439 89.9037M25.1445 92.5062C27.3362 92.5062 29.3329 91.9062 31.5442 91.9062" stroke="white" stroke-width="3" stroke-linecap="round"/>
</svg>
